<svg xmlns="http://www.w3.org/2000/svg" xmlns:xlink="http://www.w3.org/1999/xlink" version="1.1" x="0px" y="0px" viewBox="0 0 100 125" style="enable-background:new 0 0 100 100;" xml:space="preserve"><path d="M89.9,61.7C89.6,62.5,88.8,63,88,63c-0.2,0-0.5,0-0.7-0.1l-13.3-5v16.4l9.5,11.4c0.7,0.9,0.6,2.1-0.3,2.8  C82.9,88.8,82.5,89,82,89c-0.6,0-1.1-0.2-1.5-0.7L72,78.1l-8.5,10.2c-0.4,0.5-1,0.7-1.5,0.7c-0.5,0-0.9-0.2-1.3-0.5  c-0.8-0.7-1-2-0.3-2.8L70,74.3V57.9l-13.3,5C56.5,63,56.2,63,56,63c-0.8,0-1.6-0.5-1.9-1.3c-0.4-1,0.1-2.2,1.2-2.6L70,53.6v-4.8  c0.7,0.1,1.3,0.2,2,0.2s1.3-0.1,2-0.2v4.8l14.7,5.5C89.7,59.5,90.3,60.7,89.9,61.7z M26,27.8V91h10c1.1,0,2,0.9,2,2c0,1.1-0.9,2-2,2  H12c-1.1,0-2-0.9-2-2c0-1.1,0.9-2,2-2h10V7c0-1.1,0.9-2,2-2h48c1.1,0,2,0.9,2,2v18.2c-0.7-0.1-1.3-0.2-2-0.2s-1.3,0.1-2,0.2V9H44.8  L26,27.8z M26,22.2L39.2,9H26V22.2z M64,37c0,4.4,3.6,8,8,8s8-3.6,8-8c0-4.4-3.6-8-8-8S64,32.6,64,37z"/>
</svg>
